<svg width="13" height="13" viewBox="0 0 13 13" fill="none" xmlns="http://www.w3.org/2000/svg">
<path d="M8.66667 6.9875V9.2625C8.66667 11.1583 7.90834 11.9167 6.0125 11.9167H3.7375C1.84167 11.9167 1.08334 11.1583 1.08334 9.2625V6.9875C1.08334 5.09167 1.84167 4.33334 3.7375 4.33334H6.0125C7.90834 4.33334 8.66667 5.09167 8.66667 6.9875Z" stroke="#54565B" stroke-linecap="round" stroke-linejoin="round"/>
<path d="M11.9167 3.7375V6.0125C11.9167 7.90834 11.1583 8.66667 9.2625 8.66667H8.66667V6.9875C8.66667 5.09167 7.90834 4.33334 6.0125 4.33334H4.33334V3.7375C4.33334 1.84167 5.09167 1.08334 6.9875 1.08334H9.2625C11.1583 1.08334 11.9167 1.84167 11.9167 3.7375Z" stroke="#54565B" stroke-linecap="round" stroke-linejoin="round"/>
</svg>
