<svg width="138" height="24" viewBox="0 0 138 24" fill="none" xmlns="http://www.w3.org/2000/svg">
<path d="M36.162 18V8.13H42.49V9.292H37.618V12.456H42.168V13.618H37.618V18H36.162ZM46.4079 18.126C45.7826 18.126 45.2366 17.9813 44.7699 17.692C44.3033 17.4027 43.9393 16.9827 43.6779 16.432C43.4259 15.8813 43.2999 15.228 43.2999 14.472C43.2999 13.7067 43.4259 13.0533 43.6779 12.512C43.9393 11.9707 44.3033 11.5553 44.7699 11.266C45.2366 10.9673 45.7826 10.818 46.4079 10.818C47.0239 10.818 47.5606 10.972 48.0179 11.28C48.4753 11.588 48.7786 12.008 48.9279 12.54H48.7739L48.9139 10.944H50.2859C50.2579 11.2333 50.2299 11.5227 50.2019 11.812C50.1833 12.092 50.1739 12.3673 50.1739 12.638V18H48.7599V16.432H48.9139C48.7646 16.9547 48.4566 17.37 47.9899 17.678C47.5326 17.9767 47.0053 18.126 46.4079 18.126ZM46.7579 17.02C47.3646 17.02 47.8499 16.8053 48.2139 16.376C48.5873 15.9467 48.7739 15.312 48.7739 14.472C48.7739 13.632 48.5873 13.002 48.2139 12.582C47.8499 12.1527 47.3646 11.938 46.7579 11.938C46.1419 11.938 45.6473 12.1527 45.2739 12.582C44.9099 13.002 44.7279 13.632 44.7279 14.472C44.7279 15.312 44.9099 15.9467 45.2739 16.376C45.6379 16.8053 46.1326 17.02 46.7579 17.02ZM52.2092 18V12.694C52.2092 12.4047 52.1998 12.1153 52.1812 11.826C52.1718 11.5273 52.1532 11.2333 52.1252 10.944H53.4972L53.6512 12.764H53.4272C53.5205 12.3253 53.6792 11.9613 53.9032 11.672C54.1272 11.3827 54.3978 11.168 54.7152 11.028C55.0418 10.888 55.3825 10.818 55.7372 10.818C55.8865 10.818 56.0125 10.8273 56.1152 10.846C56.2178 10.8553 56.3205 10.874 56.4232 10.902L56.4092 12.162C56.2505 12.0967 56.1105 12.0593 55.9892 12.05C55.8772 12.0313 55.7372 12.022 55.5692 12.022C55.1585 12.022 54.8085 12.1153 54.5192 12.302C54.2298 12.4793 54.0105 12.722 53.8612 13.03C53.7118 13.338 53.6372 13.6693 53.6372 14.024V18H52.2092ZM57.5145 18V12.638C57.5145 12.3673 57.5005 12.092 57.4725 11.812C57.4538 11.5227 57.4305 11.2333 57.4025 10.944H58.7745L58.9005 12.428H58.7325C58.9285 11.9147 59.2272 11.518 59.6285 11.238C60.0392 10.958 60.5292 10.818 61.0985 10.818C61.6772 10.818 62.1485 10.958 62.5125 11.238C62.8858 11.5087 63.1425 11.9287 63.2825 12.498H63.0585C63.2452 11.9847 63.5625 11.5787 64.0105 11.28C64.4585 10.972 64.9765 10.818 65.5645 10.818C66.3485 10.818 66.9365 11.0467 67.3285 11.504C67.7205 11.9613 67.9165 12.6707 67.9165 13.632V18H66.5025V13.702C66.5025 13.086 66.3952 12.6427 66.1805 12.372C65.9752 12.092 65.6392 11.952 65.1725 11.952C64.6312 11.952 64.2018 12.1387 63.8845 12.512C63.5672 12.8853 63.4085 13.3893 63.4085 14.024V18H61.9945V13.702C61.9945 13.086 61.8872 12.6427 61.6725 12.372C61.4672 12.092 61.1312 11.952 60.6645 11.952C60.1232 11.952 59.6985 12.1387 59.3905 12.512C59.0825 12.8853 58.9285 13.3893 58.9285 14.024V18H57.5145ZM73.2043 18.126C72.0656 18.126 71.1696 17.804 70.5163 17.16C69.8629 16.516 69.5363 15.6247 69.5363 14.486C69.5363 13.7487 69.6763 13.1047 69.9563 12.554C70.2456 12.0033 70.6423 11.5787 71.1463 11.28C71.6596 10.972 72.2523 10.818 72.9243 10.818C73.5869 10.818 74.1423 10.958 74.5903 11.238C75.0383 11.518 75.3789 11.9147 75.6123 12.428C75.8456 12.932 75.9623 13.5293 75.9623 14.22V14.668H70.6423V13.856H74.9963L74.7583 14.038C74.7583 13.338 74.5996 12.7967 74.2823 12.414C73.9743 12.022 73.5263 11.826 72.9383 11.826C72.2849 11.826 71.7809 12.0547 71.4263 12.512C71.0716 12.96 70.8943 13.5807 70.8943 14.374V14.514C70.8943 15.3447 71.0949 15.97 71.4963 16.39C71.9069 16.81 72.4856 17.02 73.2323 17.02C73.6429 17.02 74.0256 16.964 74.3803 16.852C74.7443 16.7307 75.0896 16.5347 75.4163 16.264L75.8783 17.23C75.5516 17.5193 75.1549 17.7433 74.6883 17.902C74.2216 18.0513 73.7269 18.126 73.2043 18.126ZM77.5568 18V12.694C77.5568 12.4047 77.5475 12.1153 77.5288 11.826C77.5195 11.5273 77.5008 11.2333 77.4728 10.944H78.8448L78.9988 12.764H78.7748C78.8682 12.3253 79.0268 11.9613 79.2508 11.672C79.4748 11.3827 79.7455 11.168 80.0628 11.028C80.3895 10.888 80.7302 10.818 81.0848 10.818C81.2342 10.818 81.3602 10.8273 81.4628 10.846C81.5655 10.8553 81.6682 10.874 81.7708 10.902L81.7568 12.162C81.5982 12.0967 81.4582 12.0593 81.3368 12.05C81.2248 12.0313 81.0848 12.022 80.9168 12.022C80.5062 12.022 80.1562 12.1153 79.8668 12.302C79.5775 12.4793 79.3582 12.722 79.2088 13.03C79.0595 13.338 78.9848 13.6693 78.9848 14.024V18H77.5568ZM85.2158 18.126C84.6278 18.126 84.0865 18.0513 83.5918 17.902C83.0971 17.7527 82.6865 17.5427 82.3598 17.272L82.7938 16.306C83.1391 16.5673 83.5218 16.7633 83.9418 16.894C84.3618 17.0247 84.7911 17.09 85.2298 17.09C85.7431 17.09 86.1305 17.0013 86.3918 16.824C86.6531 16.6373 86.7838 16.3853 86.7838 16.068C86.7838 15.8253 86.6998 15.6293 86.5318 15.48C86.3731 15.3307 86.1071 15.2187 85.7338 15.144L84.3898 14.878C83.7925 14.7473 83.3398 14.5233 83.0318 14.206C82.7238 13.8887 82.5698 13.4827 82.5698 12.988C82.5698 12.568 82.6818 12.1947 82.9058 11.868C83.1391 11.5413 83.4658 11.2847 83.8858 11.098C84.3151 10.9113 84.8145 10.818 85.3838 10.818C85.9065 10.818 86.3918 10.8927 86.8398 11.042C87.2878 11.1913 87.6611 11.406 87.9598 11.686L87.5118 12.624C87.2225 12.3813 86.8958 12.1947 86.5318 12.064C86.1678 11.924 85.7991 11.854 85.4258 11.854C84.9031 11.854 84.5158 11.952 84.2638 12.148C84.0118 12.344 83.8858 12.6007 83.8858 12.918C83.8858 13.1607 83.9605 13.3613 84.1098 13.52C84.2685 13.6693 84.5158 13.786 84.8518 13.87L86.1958 14.136C86.8305 14.2667 87.3065 14.4813 87.6238 14.78C87.9411 15.0787 88.0998 15.48 88.0998 15.984C88.0998 16.4227 87.9785 16.8053 87.7358 17.132C87.4931 17.4587 87.1571 17.706 86.7278 17.874C86.2985 18.042 85.7945 18.126 85.2158 18.126Z" fill="#8B908B"/>
<g clip-path="url(#clip0_1_431)">
<path d="M23.9385 11.8223C22.4342 21.2586 15.5445 22.6969 15.5445 22.6969C6.61385 25.2811 3.08455 16.7218 3.08455 16.7218C7.98203 24.7963 15.1123 22.2935 15.1123 22.2935C13.8161 22.4555 9.63882 17.1259 9.63882 17.1259C4.95739 11.8772 0.348206 13.9767 0.348206 13.9767C4.09309 26.8964 15.1118 23.5853 15.1118 23.5853C23.0007 20.7108 23.8677 13.1379 23.959 11.8373C23.9521 11.8327 23.9452 11.8275 23.9385 11.8226L23.9385 11.8223Z" fill="#9FA19C"/>
<path d="M8.91817 14.9457C8.63003 14.864 13.1313 12.644 13.1313 12.644V12.3612C12.6951 12.2027 12.2651 12.0637 11.8402 11.94V11.272C14.795 11.9739 14.8982 7.83857 14.8982 7.83857C13.0649 7.96429 12.2156 8.61355 11.8402 9.31178V8.14413C14.2527 6.46265 11.4874 3.51019 11.4874 3.51019C9.35695 6.10274 10.6289 7.5515 11.2957 8.06614V8.95762C10.8264 8.37623 9.9384 7.91016 8.26446 7.95884C8.26446 7.95884 8.66062 11.8023 11.2957 11.1673V11.7904C8.24699 10.9915 5.55695 11.0286 3.56515 11.2919V10.7375C6.51997 11.4394 6.62316 7.30406 6.62316 7.30406C4.78987 7.43035 3.94055 8.07903 3.56515 8.77727V7.60962C5.9776 5.92784 3.21235 2.97568 3.21235 2.97568C1.08189 5.56823 2.3541 7.01699 3.02119 7.53192V8.42318C2.5519 7.84179 1.66359 7.37572 -0.0100858 7.4244C-0.0100858 7.4244 0.386079 11.2678 3.02119 10.6328V11.3708C1.12195 11.6777 -0.0124512 12.1584 -0.0124512 12.1584L0.0953138 12.9659C5.60525 12.0784 8.91825 14.9458 8.91825 14.9458L8.91817 14.9457Z" fill="#9FA19C"/>
<path d="M16.6593 7.95969C16.6593 7.95969 17.0555 11.8031 19.6906 11.1681V11.6569C14.6813 12.3485 9.21698 15.4646 9.21698 15.4646C15.297 23.1208 16.0096 22.215 16.0096 22.215C22.3108 20.4906 23.7993 11.8029 23.7993 11.8029C22.7195 11.5012 21.4987 11.4626 20.2353 11.5918V11.2725C23.1901 11.9744 23.2933 7.83903 23.2933 7.83903C21.4602 7.96475 20.6107 8.61401 20.2353 9.31224V8.14459C22.6477 6.46311 19.8825 3.51065 19.8825 3.51065C17.752 6.1032 19.0239 7.55196 19.6908 8.0666V8.95808C19.222 8.37668 18.3335 7.91062 16.6595 7.95981L16.6593 7.95969Z" fill="#DEDDDC"/>
</g>
<defs>
<clipPath id="clip0_1_431">
<rect width="24" height="24" fill="white"/>
</clipPath>
</defs>
</svg>
