<svg width="20" height="21" viewBox="0 0 20 21" fill="none" xmlns="http://www.w3.org/2000/svg">
<path d="M8.74163 2.35833L4.58331 3.91666C3.62497 4.275 2.84164 5.40833 2.84164 6.43333V12.625C2.84164 13.6083 3.49165 14.9 4.28332 15.4917L7.86664 18.1667C9.04164 19.05 10.975 19.05 12.15 18.1667L15.7333 15.4917C16.525 14.9 17.175 13.6083 17.175 12.625V6.43333C17.175 5.40833 16.3916 4.275 15.4333 3.91666L11.275 2.35833C10.5666 2.1 9.4333 2.1 8.74163 2.35833Z" stroke="#38CB89" stroke-width="1.5" stroke-linecap="round" stroke-linejoin="round"/>
<path d="M10 13.4167C11.841 13.4167 13.3333 11.9243 13.3333 10.0833C13.3333 8.24238 11.841 6.75 10 6.75C8.15906 6.75 6.66667 8.24238 6.66667 10.0833C6.66667 11.9243 8.15906 13.4167 10 13.4167Z" stroke="#38CB89" stroke-width="1.5" stroke-miterlimit="10" stroke-linecap="round" stroke-linejoin="round"/>
<path d="M10.2083 9.04166V9.81666C10.2083 10.1083 10.0583 10.3833 9.80001 10.5333L9.16667 10.9167" stroke="#38CB89" stroke-width="1.5" stroke-miterlimit="10" stroke-linecap="round" stroke-linejoin="round"/>
</svg>
