<svg width="24" height="22" viewBox="0 0 24 22" fill="none" xmlns="http://www.w3.org/2000/svg">
<path d="M23.9385 9.82234C22.4342 19.2586 15.5445 20.6969 15.5445 20.6969C6.61385 23.2811 3.08455 14.7218 3.08455 14.7218C7.98203 22.7963 15.1123 20.2935 15.1123 20.2935C13.8161 20.4555 9.63882 15.1259 9.63882 15.1259C4.95739 9.87721 0.348206 11.9767 0.348206 11.9767C4.09309 24.8964 15.1118 21.5853 15.1118 21.5853C23.0007 18.7108 23.8677 11.1379 23.959 9.83729C23.9521 9.83269 23.9452 9.82751 23.9385 9.82262L23.9385 9.82234Z" fill="#9FA19C"/>
<path d="M8.91817 12.9457C8.63003 12.864 13.1313 10.644 13.1313 10.644V10.3612C12.6951 10.2027 12.2651 10.0637 11.8402 9.94V9.27201C14.795 9.97395 14.8982 5.83857 14.8982 5.83857C13.0649 5.96429 12.2156 6.61355 11.8402 7.31178V6.14413C14.2527 4.46265 11.4874 1.51019 11.4874 1.51019C9.35695 4.10274 10.6289 5.5515 11.2957 6.06614V6.95762C10.8264 6.37623 9.9384 5.91016 8.26446 5.95884C8.26446 5.95884 8.66062 9.80226 11.2957 9.16729V9.7904C8.24699 8.99149 5.55695 9.02861 3.56515 9.29185V8.7375C6.51997 9.43943 6.62316 5.30406 6.62316 5.30406C4.78987 5.43035 3.94055 6.07903 3.56515 6.77727V5.60962C5.9776 3.92784 3.21235 0.975677 3.21235 0.975677C1.08189 3.56823 2.3541 5.01699 3.02119 5.53192V6.42318C2.5519 5.84179 1.66359 5.37572 -0.0100858 5.4244C-0.0100858 5.4244 0.386079 9.26782 3.02119 8.63285V9.37078C1.12195 9.67774 -0.0124512 10.1584 -0.0124512 10.1584L0.0953138 10.9659C5.60525 10.0784 8.91825 12.9458 8.91825 12.9458L8.91817 12.9457Z" fill="#9FA19C"/>
<path d="M16.6593 5.95969C16.6593 5.95969 17.0555 9.80312 19.6906 9.16815V9.65691C14.6813 10.3485 9.21698 13.4646 9.21698 13.4646C15.297 21.1208 16.0096 20.215 16.0096 20.215C22.3108 18.4906 23.7993 9.80295 23.7993 9.80295C22.7195 9.50117 21.4987 9.46263 20.2353 9.59179V9.27247C23.1901 9.97441 23.2933 5.83903 23.2933 5.83903C21.4602 5.96475 20.6107 6.61401 20.2353 7.31224V6.14459C22.6477 4.46311 19.8825 1.51065 19.8825 1.51065C17.752 4.1032 19.0239 5.55196 19.6908 6.0666V6.95808C19.222 6.37668 18.3335 5.91062 16.6595 5.95981L16.6593 5.95969Z" fill="#DEDDDC"/>
</svg>
