<svg width="25" height="25" viewBox="0 0 25 25" fill="none" xmlns="http://www.w3.org/2000/svg">
<path fill-rule="evenodd" clip-rule="evenodd" d="M7.29167 3.125H17.7083C20.0095 3.125 21.875 4.99048 21.875 7.29167C21.875 9.59285 20.0095 11.4583 17.7083 11.4583H7.29167C4.99048 11.4583 3.125 9.59285 3.125 7.29167C3.125 4.99048 4.99048 3.125 7.29167 3.125ZM7.29167 9.375C8.44226 9.375 9.375 8.44226 9.375 7.29167C9.375 6.14107 8.44226 5.20833 7.29167 5.20833C6.14107 5.20833 5.20833 6.14107 5.20833 7.29167C5.20833 8.44226 6.14107 9.375 7.29167 9.375Z" fill="#C9C8C6"/>
<path opacity="0.3" fill-rule="evenodd" clip-rule="evenodd" d="M7.29167 13.541H17.7083C20.0095 13.541 21.875 15.4065 21.875 17.7077C21.875 20.0089 20.0095 21.8743 17.7083 21.8743H7.29167C4.99048 21.8743 3.125 20.0089 3.125 17.7077C3.125 15.4065 4.99048 13.541 7.29167 13.541ZM17.7083 19.791C18.8589 19.791 19.7917 18.8583 19.7917 17.7077C19.7917 16.5571 18.8589 15.6243 17.7083 15.6243C16.5577 15.6243 15.625 16.5571 15.625 17.7077C15.625 18.8583 16.5577 19.791 17.7083 19.791Z" fill="#C9C8C6"/>
</svg>
