<svg width="30" height="33" viewBox="0 0 30 33" fill="none" xmlns="http://www.w3.org/2000/svg">
<path fill-rule="evenodd" clip-rule="evenodd" d="M16.3456 22.3175H18.2316C19.2732 22.3175 20.1176 23.162 20.1176 24.2037C20.1176 25.2454 19.2732 26.0898 18.2316 26.0898H1.88603C0.844404 26.0898 0 25.2454 0 24.2037C0 23.162 0.844404 22.3175 1.88603 22.3175H3.77206L4.47401 15.9996C4.7902 13.1537 7.19557 11.0007 10.0588 11.0007C12.9221 11.0007 15.3274 13.1537 15.6436 15.9996L16.3456 22.3175Z" fill="#C9C8C6"/>
<path opacity="0.3" d="M12.5724 29.8603C12.5724 28.4713 11.4465 27.3454 10.0577 27.3454C8.66884 27.3454 7.54297 28.4713 7.54297 29.8603C7.54297 31.2492 8.66884 32.3751 10.0577 32.3751C11.4465 32.3751 12.5724 31.2492 12.5724 29.8603Z" fill="#C9C8C6"/>
<path d="M29.5 5.0003C29.5 7.48578 27.4853 9.5006 25 9.5006C22.5147 9.5006 20.5 7.48578 20.5 5.0003C20.5 2.51483 22.5147 0.5 25 0.5C27.4853 0.5 29.5 2.51483 29.5 5.0003Z" fill="#FF5630" stroke="white"/>
</svg>
